<?xml version="1.0" encoding="utf-8"?>
<!-- Generator: Adobe Illustrator 26.5.0, SVG Export Plug-In . SVG Version: 6.00 Build 0)  -->
<svg version="1.1" id="Layer_1" xmlns="http://www.w3.org/2000/svg" xmlns:xlink="http://www.w3.org/1999/xlink" x="0px" y="0px"
	 viewBox="0 0 60 22.34" enable-background="new 0 0 60 22.34" xml:space="preserve">
<path id="fullLogo-2" fill="#FFFFFF" d="M14.25,12.4c-0.16,1.06-0.61,2.05-1.3,2.87c-0.73,0.69-1.71,1.04-2.71,0.98
	c-0.6,0.03-1.19-0.11-1.72-0.39c-0.07-0.04-0.14-0.08-0.21-0.12C7.98,15.55,7.68,15.3,7.42,15c-0.7-0.81-1.03-2.33-1.03-4.55
	c0-1.73,0.33-3.09,0.87-3.9c0.71-1.09,1.95-1.73,3.25-1.68c0.58-0.01,1.16,0.12,1.68,0.38c0.49,0.27,0.91,0.64,1.25,1.08
	c0.05,0.08,0.09,0.15,0.13,0.23c0.03,0.06,0.07,0.12,0.1,0.18c0.16,0.3,0.28,0.61,0.36,0.94l0.61-0.14l0.04-0.01l4.82-1.1
	c-0.29-1.11-0.8-2.15-1.5-3.06c-0.05-0.07-0.11-0.13-0.16-0.19c-0.45-0.55-0.97-1.05-1.54-1.47C14.85,0.69,12.9,0.2,10.35,0.2
	c-3.25,0-5.69,0.87-7.48,2.66S0.21,7.2,0.21,10.5c0,2.49,0.49,4.55,1.46,6.07c0.5,0.89,1.16,1.67,1.95,2.31
	c0.06,0.05,0.12,0.1,0.18,0.14c0.45,0.35,0.94,0.65,1.45,0.91c1.68,0.7,3.49,1.04,5.31,0.98c1.52,0.05,3.03-0.21,4.45-0.76
	c1.15-0.52,2.16-1.32,2.93-2.33c0.13-0.18,0.24-0.36,0.36-0.55c0.45-0.72,0.82-1.48,1.09-2.28c0.02-0.06,0.04-0.13,0.06-0.19
	c0.08-0.26,0.16-0.52,0.22-0.78L14.25,12.4z"/>
<path id="fullLogo-9" fill="#FFFFFF" d="M37.7,11.9c-0.08-0.13-0.17-0.26-0.26-0.38c-0.34-0.36-0.72-0.68-1.13-0.95
	c-0.63-0.42-1.33-0.7-2.07-0.84c0.83-0.26,1.57-0.73,2.17-1.36c0.76-0.82,1.15-1.92,1.08-3.04c0.04-0.96-0.23-1.91-0.77-2.7
	c-0.21-0.31-0.46-0.58-0.74-0.83c-1.03-0.98-2.49-1.46-4.45-1.46h-11.6v20.11h10.73c0.93-0.04,1.85-0.13,2.76-0.27
	c0.81-0.05,1.61-0.27,2.33-0.65c0.82-0.5,1.51-1.18,2.01-2.01c0.47-0.86,0.72-1.83,0.7-2.82C38.5,13.72,38.23,12.74,37.7,11.9z
	 M26.21,4.42h2.71c0.69-0.06,1.37,0.11,1.95,0.49c0.26,0.23,0.44,0.53,0.51,0.87c0.04,0.16,0.05,0.32,0.03,0.49
	c0.05,0.54-0.15,1.08-0.54,1.46c-0.6,0.38-1.3,0.55-2.01,0.49h-2.71L26.21,4.42z M31.58,15.53c-0.43,0.38-1.19,0.54-2.28,0.54h-3.14
	v-4.01h3.14c1.08,0,1.84,0.16,2.28,0.54c0.28,0.22,0.48,0.52,0.57,0.86c0.05,0.18,0.08,0.36,0.08,0.55
	C32.27,14.6,32.03,15.16,31.58,15.53z"/>
<path id="fullLogo-12" fill="#FFFFFF" d="M54.61,13.43c-0.02-0.02-0.03-0.04-0.05-0.06c-0.2-0.28-0.42-0.54-0.67-0.78
	c-0.1-0.09-0.2-0.17-0.3-0.25c-0.5-0.34-1.05-0.6-1.63-0.76c0.76-0.16,1.49-0.43,2.17-0.81c0.8-0.48,1.47-1.15,1.95-1.95
	c0.5-0.87,0.75-1.87,0.7-2.87c0.05-1.15-0.27-2.29-0.92-3.25c0-0.01-0.01-0.01-0.01-0.02c-0.59-0.85-1.44-1.49-2.43-1.83
	c-1.43-0.38-2.91-0.54-4.39-0.49h-10.3v20.06h6.18v-8.13h0.54c0.55,0,1.08,0.17,1.52,0.49c0.31,0.28,0.59,0.61,0.81,0.97
	c0.12,0.19,0.23,0.39,0.33,0.6l3.31,6.13h2.93c-0.05-0.05-0.05-3.96,0-3.96h2.06l-0.98-1.9C55.18,14.2,54.91,13.81,54.61,13.43z
	 M44.91,8.49V4.42h2.71c1.14,0,1.9,0.16,2.33,0.54c0.26,0.23,0.45,0.52,0.54,0.86c0.06,0.22,0.08,0.44,0.06,0.66
	c-0.02,0.39-0.15,0.77-0.38,1.08c-0.24,0.32-0.59,0.55-0.98,0.65c-0.53,0.14-1.08,0.23-1.63,0.27L44.91,8.49L44.91,8.49z"/>
<polygon id="fullLogo-16" fill="#FFFFFF" points="55.9,18.04 55.9,21.83 57.1,21.83 59.68,21.83 59.68,19.24 59.68,18.04 "/>
<g>
</g>
<g>
</g>
<g>
</g>
<g>
</g>
<g>
</g>
<g>
</g>
</svg>
